<?xml version="1.0" standalone="no"?>
<!DOCTYPE svg PUBLIC "-//W3C//DTD SVG 20010904//EN"
 "http://www.w3.org/TR/2001/REC-SVG-20010904/DTD/svg10.dtd">
<svg version="1.0" xmlns="http://www.w3.org/2000/svg"
 width="190.000000pt" height="187.000000pt" viewBox="0 0 190.000000 187.000000"
 preserveAspectRatio="xMidYMid meet">

<g transform="translate(0.000000,187.000000) scale(0.100000,-0.100000)"
fill="#000000" stroke="none">
<path d="M0 935 l0 -935 950 0 950 0 0 935 0 935 -950 0 -950 0 0 -935z m1500
831 c0 -74 -41 -146 -100 -176 -35 -18 -60 -20 -248 -20 -163 0 -219 -3 -253
-15 -92 -33 -124 -91 -135 -243 -6 -89 -9 -102 -23 -96 -49 21 -107 16 -135
-12 -15 -14 -16 2 -16 173 0 163 3 194 19 230 30 64 98 132 166 164 l60 29
333 0 332 0 0 -34z m-227 -372 l97 -7 0 -32 c0 -47 -40 -115 -80 -136 -27 -15
-56 -19 -136 -19 -87 0 -105 -3 -128 -21 -25 -19 -26 -25 -26 -112 0 -141 -20
-192 -85 -223 -17 -8 -22 -9 -11 -2 34 22 66 56 66 70 0 10 -2 10 -8 1 -4 -7
-14 -11 -22 -9 -40 8 -70 19 -70 26 0 4 -8 7 -17 6 -15 -1 -19 -14 -24 -71 -3
-39 -6 33 -7 161 -1 127 1 246 4 263 8 40 55 88 97 99 41 12 223 14 350 6z
m-555 -244 c21 -20 22 -29 22 -169 0 -107 -3 -151 -12 -158 -21 -16 -48 -23
-48 -13 0 6 6 10 14 10 30 0 23 15 -7 16 -41 1 -60 6 -69 19 -4 6 -8 2 -8 -7
0 -11 14 -24 33 -32 17 -8 25 -15 16 -15 -9 -1 -28 8 -43 20 -26 20 -26 21
-26 160 0 135 1 141 25 164 30 31 73 32 103 5z m-414 -138 l51 -48 0 -75 c0
-69 2 -76 32 -109 28 -31 37 -35 80 -34 28 0 59 8 75 18 27 17 28 17 54 -3 33
-26 109 -28 143 -5 38 27 44 -2 10 -49 -36 -49 -37 -86 -3 -126 49 -59 117
-51 208 24 48 39 84 55 107 46 10 -3 70 -51 135 -106 193 -163 204 -174 204
-206 0 -28 -23 -49 -52 -49 -7 0 -2 6 12 13 18 9 25 21 25 41 0 34 -25 43 -59
21 -34 -22 -69 -13 -124 33 -49 41 -81 50 -89 26 -2 -7 35 -42 82 -80 47 -37
85 -71 85 -76 0 -5 -7 -2 -16 6 -60 61 -118 82 -143 52 -9 -11 0 -23 43 -60
57 -49 89 -57 105 -29 5 10 12 15 16 12 10 -10 -24 -39 -46 -39 -11 0 -59 32
-107 70 -48 39 -92 70 -98 70 -19 0 -24 -27 -9 -40 8 -7 13 -15 11 -19 -2 -3
2 -15 10 -26 8 -10 14 -14 14 -9 0 6 -5 15 -12 22 -7 7 -8 12 -2 12 5 0 36
-24 69 -54 51 -47 58 -57 49 -73 -18 -30 -37 -26 -98 22 -32 25 -62 45 -67 45
-23 0 -5 -38 34 -71 41 -37 42 -38 23 -56 -11 -10 -15 -11 -9 -3 13 17 1 46
-15 36 -5 -3 -15 1 -22 9 -7 8 -9 15 -5 15 5 0 1 8 -7 18 -9 9 -18 26 -21 37
-3 13 -5 8 -6 -13 0 -18 -6 -42 -12 -53 -8 -15 -7 -25 2 -37 12 -16 12 -16 -5
-1 -14 13 -16 21 -7 37 6 11 11 32 11 45 0 31 -36 77 -59 77 -12 0 -20 10 -24
30 -7 31 -42 60 -77 63 -14 1 -26 13 -35 35 -15 35 -71 67 -99 56 -10 -4 -28
7 -49 30 -43 45 -79 47 -134 7 l-39 -28 -160 124 c-87 68 -167 132 -177 142
-23 22 -32 105 -18 158 14 53 78 134 122 156 19 9 36 17 38 17 2 0 27 -22 55
-48z m1414 34 c52 -27 104 -105 101 -153 0 -10 -5 -4 -10 14 -9 29 -11 31 -39
23 -20 -6 -30 -5 -30 2 0 6 -9 3 -19 -6 -11 -10 -24 -15 -29 -12 -5 3 -19 -4
-30 -15 -24 -22 -30 -37 -9 -23 7 5 5 2 -5 -8 -10 -9 -18 -23 -18 -31 0 -14
-21 -36 -49 -52 -9 -5 -12 -4 -7 3 4 8 2 10 -8 6 -8 -3 -24 -21 -36 -40 -11
-20 -16 -33 -12 -30 5 3 9 -1 9 -9 0 -8 -3 -13 -6 -12 -12 4 -61 -55 -55 -66
3 -7 -2 -3 -11 8 -9 11 -18 18 -22 16 -7 -4 -113 117 -113 130 0 5 4 9 9 9 10
0 155 111 262 200 39 33 78 60 86 60 8 0 26 -6 41 -14z m-1210 -42 c19 -13 22
-24 22 -91 0 -85 -14 -113 -57 -113 -55 0 -63 14 -63 105 0 75 2 85 22 99 12
9 29 16 38 16 9 0 26 -7 38 -16z m640 -159 c59 -27 67 -35 203 -197 97 -115
117 -144 82 -117 -16 11 -16 11 -5 -1 7 -8 18 -15 25 -15 21 0 19 -36 -4 -61
-12 -13 -27 -24 -32 -24 -5 0 -65 48 -134 107 -174 149 -205 172 -231 173 -30
0 -74 -23 -135 -71 -57 -45 -87 -55 -116 -39 -49 25 0 102 97 154 37 19 85 53
107 75 46 48 68 51 143 16z m492 -249 c0 -2 -8 -10 -17 -17 -16 -13 -17 -12
-4 4 13 16 21 21 21 13z m-1062 -138 c22 -22 13 -45 -33 -87 -50 -46 -57 -48
-79 -25 -25 25 -19 49 24 88 42 37 67 45 88 24z m130 -60 c26 -26 12 -56 -48
-108 -55 -48 -63 -52 -86 -41 -47 21 -42 41 26 103 65 59 86 68 108 46z m583
-65 c13 -16 12 -17 -3 -4 -10 7 -18 15 -18 17 0 8 8 3 21 -13z m-483 -25 c21
-21 13 -43 -30 -85 -57 -54 -82 -67 -108 -53 -39 21 -25 54 48 114 46 38 70
44 90 24z m92 -93 c31 -38 -45 -129 -103 -123 -26 2 -33 8 -35 29 -2 20 8 35
42 67 48 44 75 52 96 27z m127 -131 c-3 -3 -12 -4 -19 -1 -8 3 -5 6 6 6 11 1
17 -2 13 -5z"/>
<path d="M1084 242 c16 -18 17 -22 3 -22 -23 0 -15 -26 15 -50 28 -22 61 -18
56 7 -2 9 -23 32 -48 52 -25 19 -36 26 -26 13z"/>
<path d="M1425 670 c3 -5 8 -10 11 -10 2 0 4 5 4 10 0 6 -5 10 -11 10 -5 0 -7
-4 -4 -10z"/>
<path d="M1374 472 c17 -18 35 -32 41 -32 16 0 45 33 45 50 0 9 -5 7 -16 -6
-8 -10 -12 -13 -8 -5 5 11 2 13 -14 9 -12 -4 -20 -2 -16 3 3 5 1 9 -5 9 -5 0
-11 -6 -14 -12 -3 -10 -8 -10 -23 2 -10 8 -6 0 10 -18z"/>
<path d="M670 225 c-7 -9 -10 -18 -7 -21 3 -3 10 4 17 15 13 25 8 27 -10 6z"/>
<path d="M868 200 c-10 -9 -18 -20 -18 -24 0 -4 -7 -14 -15 -22 -8 -9 -15 -12
-15 -8 0 4 -6 -1 -14 -12 -9 -12 -11 -21 -4 -25 18 -11 47 2 73 33 38 45 31
96 -7 58z"/>
<path d="M776 142 c-3 -5 1 -9 9 -9 8 0 12 4 9 9 -3 4 -7 8 -9 8 -2 0 -6 -4
-9 -8z"/>
</g>
</svg>
